<svg xmlns="http://www.w3.org/2000/svg" xmlns:xlink="http://www.w3.org/1999/xlink" width="400" height="215" viewBox="0 0 400 215">
  <defs>
    <clipPath id="clip-path">
      <rect id="Rectangle_2855" data-name="Rectangle 2855" width="400" height="215" transform="translate(0)" fill="#fff" stroke="#707070" stroke-width="1"/>
    </clipPath>
  </defs>
  <g id="icon" clip-path="url(#clip-path)">
    <g id="Group_18" data-name="Group 18" transform="translate(-228.718 -235.345)" opacity="0.04">
      <g id="Group_17" data-name="Group 17" transform="translate(0)">
        <g id="Group_15" data-name="Group 15" transform="translate(250.297 27.18)">
          <path id="Path_27" data-name="Path 27" d="M642.073,569.524a24.127,24.127,0,0,1,24.194-24.074h0c72.522-.132,131.207-58.523,131.34-130.683h0c-.133-72.16-58.818-130.561-131.34-130.683h0c-72.543.122-131.207,58.524-131.36,130.683h.02a24.149,24.149,0,0,1-24.194,24.083h0a24.136,24.136,0,0,1-24.194-24.083h0C486.549,316,567,235.937,666.267,235.927h0c99.268.01,179.719,80.069,179.74,178.841h0c-.021,98.772-80.471,178.82-179.74,178.84h0a24.136,24.136,0,0,1-24.194-24.084Z" transform="translate(-486.539 -235.927)" fill="#1790df"/>
        </g>
        <g id="Group_16" data-name="Group 16" transform="translate(82.089)">
          <path id="Path_28" data-name="Path 28" d="M673.978,257.324A24.125,24.125,0,0,1,649.794,281.4h0c-72.532.132-131.218,58.524-131.35,130.683h0c.133,72.16,58.818,130.561,131.35,130.683h0c72.532-.122,131.207-58.524,131.34-130.683h-.01A24.151,24.151,0,0,1,805.328,388h0a24.138,24.138,0,0,1,24.194,24.094h0c-.01,98.761-80.471,178.82-179.729,178.83h0c-99.288-.01-179.729-80.059-179.74-178.83h0c.01-98.782,80.451-178.83,179.74-178.841h0a24.125,24.125,0,0,1,24.184,24.074Z" transform="translate(-470.054 -233.25)" fill="#0b284a"/>
        </g>
        <path id="Path_29" data-name="Path 29" d="M592.262,387.65l-62-56.767a32.868,32.868,0,0,1-3.031-46.411l8.225-9.311a33.256,33.256,0,0,1,46.644-3.016l62,56.767a32.86,32.86,0,0,1,3.031,46.411l-8.214,9.31A33.269,33.269,0,0,1,592.262,387.65Z" transform="translate(63.046 48.282)" fill="#1790df"/>
        <path id="Path_30" data-name="Path 30" d="M525.057,387.65l62-56.767a32.868,32.868,0,0,0,3.031-46.411l-8.225-9.311a33.257,33.257,0,0,0-46.644-3.016l-62,56.767a32.859,32.859,0,0,0-3.031,46.411l8.214,9.31A33.269,33.269,0,0,0,525.057,387.65Z" transform="translate(-462.009 48.282)" fill="#0b284a"/>
      </g>
    </g>
  </g>
</svg>
