<?xml version="1.0" standalone="no"?>
<!DOCTYPE svg PUBLIC "-//W3C//DTD SVG 1.0//EN" "http://www.w3.org/TR/2001/REC-SVG-20010904/DTD/svg10.dtd">
<svg xmlns="http://www.w3.org/2000/svg" xmlns:xlink="http://www.w3.org/1999/xlink" id="body_1" width="45" height="21">

<defs>
    <clipPath  id="1">

    <path id=""  clip-rule="evenodd" transform="matrix(1 0 0 1 0 0)"  d="M34.0605 -0.18950081L34.0605 16L34.0605 16L0 16L0 16L0 -0.18950081L0 -0.18950081L34.0605 -0.18950081z" />    </clipPath>
</defs>

<g transform="matrix(1.3333 0 0 1.3333 0 0)">
	<g clip-path="url(#1)" >
    <path id=""  transform="matrix(1 0 0 -1 0 16)"  d="M8.061842 1.0604247L8.061842 1.0604247L8.061842 1.0604247L1.0613422 8.060925" stroke="#0090DF" stroke-width="1.5" stroke-linecap="round" fill="none" />
    <path id=""  transform="matrix(1 0 0 -1 0 16)"  d="M8.061842 15.128184L8.061842 15.128184L8.061842 15.128184L1.0613422 8.127685" stroke="#0090DF" stroke-width="1.5" stroke-linecap="round" fill="none" />
    <path id=""  transform="matrix(1 0 0 -1 0 16)"  d="M33.310497 8.094726L33.310497 8.094726L33.310497 8.094726L2.5604973 8.094726" stroke="#0090DF" stroke-width="1.5" stroke-linecap="round" fill="none" />
	</g>
</g>
</svg>