<svg xmlns="http://www.w3.org/2000/svg" xmlns:xlink="http://www.w3.org/1999/xlink" width="94" height="94" viewBox="0 0 94 94">
  <defs>
    <clipPath id="clip-path">
      <rect id="Rectangle_2876" data-name="Rectangle 2876" width="60" height="92" transform="translate(-0.25 -0.312)" fill="#0090df"/>
    </clipPath>
  </defs>
  <g id="special_icon" data-name="special icon" transform="translate(-278.781 -107.689)">
    <rect id="Rectangle_2896" data-name="Rectangle 2896" width="94" height="94" transform="translate(278.781 107.689)" fill="#fff"/>
    <g id="Group_10976" data-name="Group 10976" transform="translate(296.031 109.001)">
      <g id="Group_10975" data-name="Group 10975" transform="translate(0 0)" clip-path="url(#clip-path)">
        <path id="Path_51832" data-name="Path 51832" d="M308.3,148.7a28.728,28.728,0,1,0,35.447,0l11.341-18.9a4.515,4.515,0,0,0-.062-4.769l-9.581-15.06a1.6,1.6,0,0,0-1.277-.7H307.882a1.6,1.6,0,0,0-1.269.7l-9.581,15.057a4.515,4.515,0,0,0-.062,4.769Zm43.427,22.564a25.7,25.7,0,1,1-25.7-25.7,25.7,25.7,0,0,1,25.7,25.7ZM332.208,127.42H320.5l-9.828-15.12h30.8Zm-1.853,3.025-3.831,6.251-4.063-6.251Zm22.141-2.2-11.228,18.717a28.525,28.525,0,0,0-14.789-4.4l17.717-28.92,8.28,13.012a1.513,1.513,0,0,1,.021,1.59Zm-52.92-1.588,8.317-13.073,16.883,25.97-1.946,3.175a28.5,28.5,0,0,0-12.046,4.234l-11.228-18.718a1.51,1.51,0,0,1,.021-1.581Zm0,0" transform="translate(-296.275 -108.983)" fill="#0090df"/>
      </g>
    </g>
    <path id="Path_51833" data-name="Path 51833" d="M348.254,382.249A19.678,19.678,0,0,1,328.6,362.593a1.512,1.512,0,0,0-3.024,0,22.706,22.706,0,0,0,22.68,22.68,1.512,1.512,0,1,0,0-3.024Zm0,0" transform="translate(-22.473 -191.307)" fill="#0090df"/>
    <path id="Path_51834" data-name="Path 51834" d="M413.7,274.46a1.512,1.512,0,0,0,1.512,1.512,19.678,19.678,0,0,1,19.656,19.656,1.512,1.512,0,1,0,3.024,0,22.706,22.706,0,0,0-22.68-22.68,1.513,1.513,0,0,0-1.512,1.512Zm0,0" transform="translate(-89.434 -124.343)" fill="#0090df"/>
    <path id="Path_51835" data-name="Path 51835" d="M388.462,312.937l-6.431-.98-2.872-6.117a2.439,2.439,0,0,0-4.427,0l-2.873,6.117-6.431.98a2.448,2.448,0,0,0-1.965,1.663,2.493,2.493,0,0,0,.583,2.546l4.7,4.81-1.109,6.795a2.478,2.478,0,0,0,1.019,2.446,2.417,2.417,0,0,0,2.57.141l5.716-3.153,5.712,3.153a2.411,2.411,0,0,0,2.571-.141,2.478,2.478,0,0,0,1.019-2.446l-1.11-6.795,4.7-4.81a2.494,2.494,0,0,0,.582-2.546,2.45,2.45,0,0,0-1.957-1.663Zm-5.673,7.091a2.5,2.5,0,0,0-.68,2.158l.97,5.93-4.967-2.74a2.417,2.417,0,0,0-2.342,0l-4.965,2.738.969-5.927a2.5,2.5,0,0,0-.676-2.158l-4.169-4.265,5.689-.866a2.455,2.455,0,0,0,1.845-1.388l2.48-5.271,2.48,5.272a2.454,2.454,0,0,0,1.848,1.389l5.686.866Zm0,0" transform="translate(-51.161 -148.258)" fill="#0090df"/>
  </g>
</svg>
