<svg xmlns="http://www.w3.org/2000/svg" width="94" height="94" viewBox="0 0 94 94">
  <g id="wallet_icon" data-name="wallet icon" transform="translate(-242 -105.276)">
    <rect id="Rectangle_2890" data-name="Rectangle 2890" width="94" height="94" transform="translate(242 105.276)" fill="#fff"/>
    <path id="Path_51811" data-name="Path 51811" d="M298.892,435.2v-3.081a2.791,2.791,0,0,0-2.788-2.788h-9.04a2.791,2.791,0,0,0-2.788,2.788V435.2a2.791,2.791,0,0,0,2.788,2.788h9.04a2.791,2.791,0,0,0,2.788-2.788Zm-11.918,0v-3.081a.09.09,0,0,1,.09-.09h9.04a.09.09,0,0,1,.09.09V435.2a.09.09,0,0,1-.09.09h-9.04a.09.09,0,0,1-.09-.09Zm0,0" transform="translate(-28.338 -245.666)" fill="#0090df"/>
    <path id="Path_51812" data-name="Path 51812" d="M487.406,367.2a4.328,4.328,0,1,0,4.328,4.329,4.333,4.333,0,0,0-4.328-4.329Zm0,5.958a1.63,1.63,0,1,1,1.631-1.63,1.632,1.632,0,0,1-1.631,1.63Zm0,0" transform="translate(-179.523 -198.418)" fill="#0090df"/>
    <path id="Path_51813" data-name="Path 51813" d="M322.768,156.882H321.14V137.392a4.33,4.33,0,0,0-4.325-4.325h-1.629v-18a2.838,2.838,0,0,0-2.836-2.836H285.558c-.047,0-.093,0-.14.006V110.5a4.227,4.227,0,0,0-4.223-4.223H257.177a4.227,4.227,0,0,0-4.223,4.223v4.849a1.348,1.348,0,1,0,2.7,0V110.5a1.529,1.529,0,0,1,1.527-1.527h1.73v36h-3.258V120.738a1.348,1.348,0,1,0-2.7,0v12.455A7.3,7.3,0,0,0,247,140.325c0,.015,0,.029,0,.044v50.605a7.31,7.31,0,0,0,7.3,7.3h6.235a1.348,1.348,0,1,0,0-2.7H254.3a4.612,4.612,0,0,1-4.606-4.606v-45a7.468,7.468,0,0,0,4.486,1.692c.039,0,62.634.006,62.634.006a1.631,1.631,0,0,1,1.628,1.629v13.536H301.93a4.329,4.329,0,0,0-4.324,4.325v11.907a4.329,4.329,0,0,0,4.324,4.325h16.513v10.559a1.631,1.631,0,0,1-1.628,1.629H265.927a1.348,1.348,0,0,0,0,2.7h50.888a4.329,4.329,0,0,0,4.324-4.325V183.392h1.629a7.31,7.31,0,0,0,7.3-7.3V164.183a7.309,7.309,0,0,0-7.3-7.3ZM249.7,140.5a4.613,4.613,0,0,1,3.257-4.537v8.78A4.655,4.655,0,0,1,249.7,140.5Zm35.861-25.574h26.791a.141.141,0,0,1,.141.14v29.908h-3.259v-21.62a2.077,2.077,0,0,0-1.634-2.04,2.116,2.116,0,0,1-1.5-1.5,2.1,2.1,0,0,0-2.04-1.635H293.847a2.077,2.077,0,0,0-2.04,1.634,2.115,2.115,0,0,1-1.5,1.5,2.1,2.1,0,0,0-1.635,2.04v21.62h-3.258V115.066a.14.14,0,0,1,.14-.14Zm20.979,30.049H291.371V123.811a4.868,4.868,0,0,0,2.932-2.932h9.3a4.865,4.865,0,0,0,2.931,2.932ZM282.722,110.5v34.476H267.556v-36h13.638a1.529,1.529,0,0,1,1.527,1.527ZM261.6,144.974v-36h3.259v36Zm55.213,0h-1.629v-9.212h1.629a1.63,1.63,0,0,1,1.628,1.629v7.9a4.29,4.29,0,0,0-1.628-.32Zm10.559,31.116a4.612,4.612,0,0,1-4.606,4.606H301.931a1.631,1.631,0,0,1-1.629-1.629V167.16a1.631,1.631,0,0,1,1.629-1.629H321.28a1.348,1.348,0,1,0,0-2.7h-.141v-3.258h1.629a4.611,4.611,0,0,1,4.606,4.605Zm0,0" transform="translate(0)" fill="#0090df"/>
    <path id="Path_51814" data-name="Path 51814" d="M450.129,218.1a4.329,4.329,0,1,0,4.328,4.329,4.333,4.333,0,0,0-4.328-4.329Zm0,5.959a1.631,1.631,0,1,1,1.63-1.631,1.633,1.633,0,0,1-1.63,1.631Zm0,0" transform="translate(-151.176 -85.035)" fill="#0090df"/>
    <path id="Path_51815" data-name="Path 51815" d="M459.575,186.5a1.349,1.349,0,0,0,1.349-1.349v-2.98a1.349,1.349,0,1,0-2.7,0v2.98a1.349,1.349,0,0,0,1.349,1.349Zm0,0" transform="translate(-160.621 -56.691)" fill="#0090df"/>
    <path id="Path_51816" data-name="Path 51816" d="M349.19,142.764h3.081a2.791,2.791,0,0,0,2.788-2.788v-6.06a2.791,2.791,0,0,0-2.788-2.788H349.19a2.791,2.791,0,0,0-2.788,2.788v6.06a2.791,2.791,0,0,0,2.788,2.788Zm-.09-8.848a.09.09,0,0,1,.09-.09h3.081a.09.09,0,0,1,.09.09v6.06a.09.09,0,0,1-.09.09H349.19a.09.09,0,0,1-.09-.09Zm0,0" transform="translate(-75.589 -18.893)" fill="#0090df"/>
  </g>
</svg>
